<?xml version="1.0" encoding="UTF-8" standalone="no"?>
<svg
   xmlns:dc="http://purl.org/dc/elements/1.1/"
   xmlns:cc="http://creativecommons.org/ns#"
   xmlns:rdf="http://www.w3.org/1999/02/22-rdf-syntax-ns#"
   xmlns:svg="http://www.w3.org/2000/svg"
   xmlns="http://www.w3.org/2000/svg"
   id="svg8"
   version="1.1"
   viewBox="0 0 56.726665 45.508335"
   height="45.508335mm"
   width="56.726665mm">
  <defs
     id="defs2" />
  <metadata
     id="metadata5">
    <rdf:RDF>
      <cc:Work
         rdf:about="">
        <dc:format>image/svg+xml</dc:format>
        <dc:type
           rdf:resource="http://purl.org/dc/dcmitype/StillImage" />
        <dc:title></dc:title>
      </cc:Work>
    </rdf:RDF>
  </metadata>
  <g
     transform="translate(-77.470001,-126.07916)"
     id="layer1">
    <g
       transform="translate(0.37797603,-0.11339523)"
       id="g69">
      <path
         id="path73"
         d="m 77.470009,149.21134 v -22.75417 h 28.363331 28.36333 v 22.75417 22.75416 H 105.83334 77.470009 Z"
         style="fill:#f2f8fb;stroke-width:0.21166667" />
      <path
         id="path71"
         d="m 80.539176,170.18768 c -0.34925,-0.1558 -0.901768,-0.53382 -1.227818,-0.84006 -1.254417,-1.1782 -1.206349,-0.36402 -1.206349,-20.4332 0,-12.46581 0.07252,-18.60037 0.224649,-19.00389 0.304691,-0.80816 1.425567,-1.95826 2.255636,-2.31443 0.566392,-0.24304 4.791249,-0.29148 25.082496,-0.28761 23.14477,0.004 24.44508,0.0245 25.24987,0.3901 1.07022,0.48619 2.16214,1.71549 2.32453,2.61697 0.0686,0.38084 0.0971,8.99605 0.0634,19.14491 -0.0608,18.26709 -0.0658,18.45835 -0.4984,19.03775 -0.24037,0.3219 -0.79688,0.87654 -1.23669,1.23253 l -0.79965,0.64725 -24.79832,0.0465 c -20.33002,0.0381 -24.912732,-0.005 -25.433314,-0.23679 z m 9.845741,-14.57343 c 0.0018,-2.93952 0.08739,-5.47748 0.190242,-5.6399 0.221554,-0.3499 1.317033,-0.19065 2.066463,0.30039 0.984635,0.64516 1.192018,1.45081 1.36082,5.2866 0.08709,1.97908 0.2847,3.97933 0.439124,4.445 l 0.280772,0.84666 3.968001,0.0576 c 2.182401,0.0317 3.968001,-10e-4 3.968001,-0.073 0,-0.0718 -0.18739,-0.76448 -0.41642,-1.53926 -0.22904,-0.77478 -0.5177,-2.36119 -0.64147,-3.52536 -0.39854,-3.74842 -0.77866,-4.64331 -2.441183,-5.74717 -0.636676,-0.42273 -1.157592,-0.8008 -1.157592,-0.84016 0,-0.0394 0.404813,-0.27488 0.899583,-0.52337 2.226852,-1.11843 3.104672,-2.33092 3.281382,-4.53241 0.19626,-2.44496 -1.34015,-4.64545 -3.916554,-5.6094 -1.848704,-0.69169 -3.990205,-0.86685 -9.789411,-0.80071 l -5.397499,0.0616 -0.05501,11.32416 c -0.03026,6.2283 -0.0094,11.44323 0.04627,11.58875 0.07555,0.19735 1.017411,0.26459 3.706262,0.26459 h 3.604976 l 0.0032,-5.34459 z m 0.125238,-8.32522 c -0.167395,-0.43623 -0.167395,-6.51416 0,-6.95038 0.186431,-0.48583 1.306657,-0.42022 2.414744,0.14144 1.321028,0.66959 1.784602,1.56259 1.782561,3.43384 -0.0019,1.78753 -0.452537,2.70805 -1.618602,3.30672 -0.978306,0.50227 -2.39776,0.53991 -2.578703,0.0684 z m 18.074855,7.74314 c 0.0641,-3.52615 0.18022,-5.7054 0.29452,-5.52802 0.10378,0.16104 0.9134,2.78042 1.79916,5.82083 l 1.61048,5.52802 h 2.32797 2.32797 l 1.51765,-5.3975 c 0.8347,-2.96862 1.58153,-5.588 1.65962,-5.82083 0.3321,-0.99017 0.4862,0.83061 0.50653,5.9847 l 0.0211,5.3497 3.54541,-0.058 3.54542,-0.058 v -11.53583 -11.53583 l -3.62129,-0.0578 c -2.78755,-0.0445 -3.67439,0.006 -3.8519,0.22009 -0.12684,0.15283 -0.93316,2.75058 -1.79183,5.77278 -1.02824,3.61909 -1.65651,5.49492 -1.84039,5.49492 -0.18363,0 -0.8176,-1.88276 -1.85219,-5.50058 -0.86514,-3.02532 -1.67283,-5.62088 -1.79486,-5.76792 -0.16158,-0.19469 -1.1304,-0.26734 -3.56531,-0.26734 -1.83889,0 -3.4941,0.0578 -3.67825,0.12848 -0.29956,0.11495 -0.33481,1.32597 -0.33481,11.50056 0,6.25464 0.0674,11.43948 0.14978,11.52186 0.0824,0.0824 0.77294,0.12206 1.53458,0.0882 l 1.3848,-0.0616 z"
         style="fill:#1692cb;stroke-width:0.21166667" />
    </g>
    <path
       id="path25"
       d=""
       style="fill:#000000;stroke-width:0.21166667" />
    <path
       id="path23"
       d=""
       style="fill:#000000;stroke-width:0.21166667" />
    <path
       id="path21"
       d=""
       style="fill:#000000;stroke-width:0.21166667" />
  </g>
</svg>
